# xmcd
# Track frame offsets:
# 182
# 16157
# 32032
# 48657
# 63407
# 79945
# 96587
#
# Disc length: 1526 seconds
# Revision: 0
# Processed by: cddbd v1.4PL0 Copyright (c) Steve Scherf et al.
# Submitted via: VisiTrax 2.9.5.181 - For more info visit www.synapsa.com
#
DISCID=5805f407
DTITLE=Memphis Blue - Every little thing
DYEAR=1993
DGENRE=
TTITLE0=I´ll be there
TTITLE1=Cody (´till the day will come)
TTITLE2=Every little thing
TTITLE3=Nothing but love
TTITLE4=When dreams come true (remix)
TTITLE5=Wishes on the wall
TTITLE6=I´ll be there (acoustic version)
EXTD=
EXTT0=
EXTT1=
EXTT2=
EXTT3=
EXTT4=
EXTT5=
EXTT6=
PLAYORDER=
